<svg xmlns="http://www.w3.org/2000/svg" version="1.1" xmlns:xlink="http://www.w3.org/1999/xlink" xmlns:svgjs="http://svgjs.dev/svgjs" width="2000" height="1000" preserveAspectRatio="none" viewBox="0 0 2000 1000"><g mask="url(&quot;#SvgjsMask1034&quot;)" fill="none"><rect width="2000" height="1000" x="0" y="0" fill="url(&quot;#SvgjsLinearGradient1035&quot;)"></rect><path d="M2000 0L1797.18 0L2000 461.07z" fill="rgba(255, 255, 255, .1)"></path><path d="M1797.18 0L2000 461.07L2000 755.01L837.3800000000001 0z" fill="rgba(255, 255, 255, .075)"></path><path d="M837.3800000000001 0L2000 755.01L2000 815.59L684.4600000000002 0z" fill="rgba(255, 255, 255, .05)"></path><path d="M684.46 0L2000 815.59L2000 933.5L528.07 0z" fill="rgba(255, 255, 255, .025)"></path><path d="M0 1000L596.56 1000L0 517.14z" fill="rgba(0, 0, 0, .1)"></path><path d="M0 517.14L596.56 1000L835.92 1000L0 326.41999999999996z" fill="rgba(0, 0, 0, .075)"></path><path d="M0 326.41999999999996L835.92 1000L1193.37 1000L0 292.06999999999994z" fill="rgba(0, 0, 0, .05)"></path><path d="M0 292.06999999999994L1193.37 1000L1531.04 1000L0 124.81999999999994z" fill="rgba(0, 0, 0, .025)"></path></g><defs><mask id="SvgjsMask1034"><rect width="2000" height="1000" fill="#ffffff"></rect></mask><linearGradient x1="50%" y1="0%" x2="50%" y2="100%" gradientUnits="userSpaceOnUse" id="SvgjsLinearGradient1035"><stop stop-color="#0e2a47" offset="0"></stop><stop stop-color="#00459e" offset="1"></stop></linearGradient></defs></svg>