<svg xmlns="http://www.w3.org/2000/svg" version="1.1" xmlns:xlink="http://www.w3.org/1999/xlink" xmlns:svgjs="http://svgjs.dev/svgjs" width="2000" height="700" preserveAspectRatio="none" viewBox="0 0 2000 700"><g mask="url(&quot;#SvgjsMask1032&quot;)" fill="none"><rect width="2000" height="700" x="0" y="0" fill="rgba(198, 213, 251, 1)"></rect><path d="M2000.0000000000005 700L0 700 L0 400.48Q94.51 395, 100 489.51Q120.76 410.27, 200 431.03Q266.9 331.26, 366.6666666666667 398.16Q433.67 298.5, 533.3333333333334 365.5Q613.09 345.26, 633.3333333333334 425.02Q738.07 363.09, 800 467.82Q846.68 347.84, 966.6666666666667 394.52Q1081.2 342.38, 1133.3333333333335 456.91Q1145.15 368.73, 1233.3333333333335 380.54Q1277.14 324.35, 1333.3333333333335 368.16Q1474.91 343.07, 1500.0000000000002 484.64Q1519.82 337.79, 1666.666666666667 357.61Q1758.89 283.17, 1833.3333333333337 375.39Q1972.5 347.89, 2000.0000000000005 487.05z" fill="rgba(94, 101, 174, 0.35)"></path><path d="M2100.0000000000005 700L0 700 L0 477.13Q67.81 444.94, 100 512.75Q174.4 420.49, 266.6666666666667 494.89Q386.39 447.95, 433.33333333333337 567.68Q543.92 511.6, 600 622.19Q623.51 479.04, 766.6666666666667 502.55Q822.47 458.35, 866.6666666666667 514.15Q928.32 409.14, 1033.3333333333335 470.79Q1097.97 435.43, 1133.3333333333335 500.07Q1235.62 435.69, 1300.0000000000002 537.97Q1421.89 493.19, 1466.666666666667 615.08Q1483.5 531.91, 1566.666666666667 548.75Q1628.32 443.73, 1733.3333333333337 505.38Q1788.64 460.69, 1833.3333333333337 515.99Q1864.66 447.31, 1933.3333333333337 478.64Q2027.39 406.03, 2100.0000000000005 500.09z" fill="rgba(53, 108, 177, 0.39)"></path><path d="M2000.0000000000002 700L0 700 L0 586.95Q119.95 606.9, 100 726.85Q190.26 650.44, 266.6666666666667 740.7Q281.04 655.07, 366.6666666666667 669.44Q399.93 602.71, 466.6666666666667 635.97Q574.56 577.19, 633.3333333333334 685.08Q694.89 646.64, 733.3333333333334 708.2Q830.2 638.4, 900 735.26Q948.88 617.48, 1066.6666666666667 666.36Q1104.97 604.66, 1166.6666666666667 642.96Q1300.18 609.81, 1333.3333333333335 743.33Q1356.28 666.28, 1433.3333333333335 689.23Q1494.48 650.38, 1533.3333333333335 711.53Q1554.89 633.09, 1633.3333333333335 654.64Q1674.41 595.71, 1733.3333333333335 636.79Q1792.41 529.2, 1900.0000000000002 588.28Q1966.96 555.24, 2000.0000000000002 622.2z" fill="rgba(255, 255, 255, 1)"></path></g><defs><mask id="SvgjsMask1032"><rect width="2000" height="700" fill="#ffffff"></rect></mask></defs></svg>